<?xml version="1.0" encoding="iso-8859-1"?>
<!-- Uploaded to: SVG Repo, www.svgrepo.com, Generator: SVG Repo Mixer Tools -->
<svg fill="#000000" height="800px" width="800px" version="1.1" id="Layer_1" xmlns="http://www.w3.org/2000/svg" xmlns:xlink="http://www.w3.org/1999/xlink" 
	 viewBox="0 0 512 512" xml:space="preserve">
<g>
	<g>
		<path d="M469.333,251.733H396.8l-23.04-30.72c-1.613-2.15-4.147-3.413-6.827-3.413H358.4v-51.2c0-4.702,3.823-8.533,8.533-8.533
			c4.719,0,8.533-3.823,8.533-8.533s-3.814-8.533-8.533-8.533c-14.114,0-25.6,11.486-25.6,25.6v51.2h-17.067v-17.067
			c0-4.71-3.814-8.533-8.533-8.533s-8.533,3.823-8.533,8.533V217.6h-34.133c-2.68,0-5.214,1.263-6.827,3.413l-23.04,30.72h-81.067
			c-0.777,0-1.545,0.102-2.287,0.316l-65.98,18.33V243.2c0-4.71-3.814-8.533-8.533-8.533H51.2c-4.173,0-7.731,3.021-8.414,7.125
			l-7.475,44.843l-18.244,5.077v-5.845c0-4.71-3.814-8.533-8.533-8.533S0,281.156,0,285.867V320c0,4.71,3.814,8.533,8.533,8.533
			s8.533-3.823,8.533-8.533v-5.845l18.244,5.069l7.475,44.843c0.683,4.113,4.241,7.134,8.414,7.134h34.133
			c4.719,0,8.533-3.823,8.533-8.533v-27.179l65.98,18.33c0.742,0.213,1.51,0.316,2.287,0.316h307.2
			c23.526,0,42.667-22.963,42.667-51.2C512,274.697,492.86,251.733,469.333,251.733z M277.333,234.667h85.333l12.8,17.067H264.533
			L277.333,234.667z M58.428,251.733H76.8v23.381L53.453,281.6L58.428,251.733z M76.8,354.133H58.428l-4.975-29.867l23.347,6.485
			V354.133z M469.333,337.067H163.302l-122.88-34.133l122.88-34.133h306.031c14.114,0,25.6,15.309,25.6,34.133
			S483.448,337.067,469.333,337.067z"/>
	</g>
</g>
</svg>